<?xml version="1.0" standalone="no"?>
<!DOCTYPE svg PUBLIC "-//W3C//DTD SVG 20010904//EN"
 "http://www.w3.org/TR/2001/REC-SVG-20010904/DTD/svg10.dtd">
<svg version="1.0" xmlns="http://www.w3.org/2000/svg"
 width="161.000000pt" height="169.000000pt" viewBox="0 0 161.000000 169.000000"
 preserveAspectRatio="xMidYMid meet">
<metadata>
Created by potrace 1.16, written by Peter Selinger 2001-2019
</metadata>
<g transform="translate(0.000000,169.000000) scale(0.100000,-0.100000)"
fill="#0064a6" stroke="none">
<path d="M1045 1681 c-11 -5 -29 -19 -40 -31 -19 -21 -20 -38 -23 -421 -3
-439 -2 -444 57 -469 39 -16 92 -6 117 21 17 19 20 43 24 219 5 195 5 199 30
226 54 57 127 65 172 17 22 -24 23 -32 28 -233 4 -186 7 -210 24 -229 41 -46
127 -36 159 18 24 40 25 411 2 489 -31 103 -101 152 -220 152 -71 0 -138 -22
-177 -57 -17 -15 -18 -10 -18 105 0 136 -8 164 -55 187 -36 17 -50 18 -80 6z"/>
<path d="M362 1387 c-30 -32 -29 -81 3 -112 23 -24 29 -25 155 -25 l132 0
-154 -167 c-85 -93 -162 -179 -171 -193 -25 -36 -22 -86 8 -115 l24 -25 260 0
c258 0 260 0 287 23 35 31 37 77 4 112 -23 24 -27 25 -172 25 -81 0 -148 3
-148 6 0 3 26 34 59 68 109 114 259 283 271 306 14 27 6 77 -17 102 -15 16
-37 18 -268 18 -250 0 -252 0 -273 -23z"/>
<path d="M191 671 c-118 -41 -174 -120 -131 -188 17 -28 25 -33 60 -33 29 0
48 7 72 28 63 54 80 62 140 62 45 0 62 -5 84 -23 22 -19 26 -29 20 -51 -9 -34
-27 -41 -167 -59 -71 -10 -133 -24 -157 -36 -124 -63 -146 -218 -45 -313 30
-28 107 -58 151 -58 51 0 143 30 188 61 l44 30 9 -23 c21 -56 88 -80 146 -53
43 21 51 46 36 115 -6 28 -11 132 -11 231 0 201 -7 230 -61 272 -76 57 -266
76 -378 38z m242 -463 c-29 -50 -66 -71 -130 -76 -49 -3 -63 0 -86 18 -23 18
-28 29 -25 58 4 48 47 78 126 87 31 4 73 12 92 18 l35 12 3 -43 c2 -28 -3 -54
-15 -74z"/>
<path d="M696 659 c-14 -17 -26 -43 -26 -57 0 -40 150 -523 172 -554 22 -31
84 -54 122 -44 14 3 40 19 56 34 26 23 35 49 71 195 23 92 45 167 48 167 4 0
25 -73 46 -162 45 -184 68 -224 136 -234 46 -8 105 19 124 55 28 54 159 497
159 539 1 57 -35 92 -95 92 -61 0 -81 -29 -108 -152 -49 -220 -63 -279 -67
-275 -3 2 -20 77 -39 166 -40 184 -53 222 -86 245 -35 24 -108 21 -142 -7 -31
-24 -53 -100 -92 -309 -10 -54 -21 -98 -25 -98 -3 0 -23 71 -43 158 -21 86
-42 174 -48 195 -14 53 -44 77 -95 77 -35 0 -47 -5 -68 -31z"/>
</g>
</svg>
